<svg width="24" height="25" viewBox="0 0 24 25" fill="none" xmlns="http://www.w3.org/2000/svg">
<path d="M22.56 12.75C22.56 11.97 22.49 11.22 22.36 10.5H12V14.76H17.92C17.66 16.13 16.88 17.29 15.71 18.07V20.84H19.28C21.36 18.92 22.56 16.1 22.56 12.75Z" fill="#4285F4"/>
<path d="M11.9997 23.5C14.9697 23.5 17.4597 22.52 19.2797 20.84L15.7097 18.07C14.7297 18.73 13.4797 19.13 11.9997 19.13C9.13969 19.13 6.70969 17.2 5.83969 14.6H2.17969V17.44C3.98969 21.03 7.69969 23.5 11.9997 23.5Z" fill="#34A853"/>
<path d="M5.84 14.59C5.62 13.93 5.49 13.23 5.49 12.5C5.49 11.77 5.62 11.07 5.84 10.41V7.57H2.18C1.43 9.05 1 10.72 1 12.5C1 14.28 1.43 15.95 2.18 17.43L5.03 15.21L5.84 14.59Z" fill="#FBBC05"/>
<path d="M11.9997 5.88C13.6197 5.88 15.0597 6.44 16.2097 7.52L19.3597 4.37C17.4497 2.59 14.9697 1.5 11.9997 1.5C7.69969 1.5 3.98969 3.97 2.17969 7.57L5.83969 10.41C6.70969 7.81 9.13969 5.88 11.9997 5.88Z" fill="#EA4335"/>
</svg>
