<?xml version="1.0" encoding="UTF-8"?>
<svg version="1.1" xmlns="http://www.w3.org/2000/svg" width="512" height="512">
<path d="M0 0 C1.38361414 -0.00230963 2.76722704 -0.00548949 4.15083742 -0.00945449 C7.92011907 -0.01774225 11.68929841 -0.01370487 15.45858026 -0.00748205 C19.53635336 -0.00293372 23.61410958 -0.00995307 27.69187927 -0.01544189 C35.66730243 -0.02431223 43.64268784 -0.02242443 51.61811244 -0.01661661 C58.10275702 -0.01209082 64.58739104 -0.01149118 71.07203674 -0.01366425 C71.9966922 -0.01397071 72.92134767 -0.01427718 73.87402299 -0.01459293 C75.75273081 -0.01523241 77.63143863 -0.01588084 79.51014644 -0.01653811 C97.10649233 -0.0222345 114.70281735 -0.01569438 132.29915982 -0.00493738 C147.38153855 0.0039975 162.46388648 0.00244526 177.54626465 -0.0067749 C195.08176222 -0.01748976 212.61724152 -0.02168524 230.15274191 -0.01555037 C232.02434889 -0.01491331 233.89595588 -0.01428457 235.76756287 -0.01366425 C237.14868568 -0.01320142 237.14868568 -0.01320142 238.55770996 -0.01272924 C245.03087383 -0.01100595 251.50402605 -0.01390951 257.97718811 -0.01862335 C265.87108073 -0.0242457 273.7649336 -0.02268731 281.6588217 -0.01206186 C285.68259341 -0.00682335 289.70629896 -0.00471721 293.73007011 -0.01136017 C297.42000864 -0.01735964 301.10982024 -0.01397924 304.79974741 -0.00340506 C306.75275706 -0.00014496 308.70577567 -0.00660609 310.65877581 -0.01351953 C328.49655785 0.06509339 342.89639017 3.94984061 356.9197998 15.25396729 C358.17276855 16.19369385 358.17276855 16.19369385 359.4510498 17.15240479 C367.08043444 23.64703918 372.63051922 32.85430781 375.9197998 42.25396729 C376.16583859 42.90739766 376.41187738 43.56082804 376.66537189 44.23405933 C379.84193714 53.92193439 379.36102465 63.79764828 379.35217285 73.87188721 C379.36120011 75.95230691 379.37152968 78.03272131 379.38305664 80.11312866 C379.41053941 85.73421305 379.41989931 91.35519626 379.42591071 96.9763391 C379.43531711 102.86069577 379.46152233 108.74497754 379.48591614 114.62928772 C379.52952253 125.760145 379.5581055 136.89098769 379.58123952 148.02190429 C379.60832261 160.69910777 379.65223222 173.37623569 379.69752824 186.05338514 C379.79029059 212.12020484 379.86200983 238.18704824 379.9197998 264.25396729 C380.86009033 264.71142334 381.80038086 265.16887939 382.76916504 265.64019775 C384.02652581 266.25861038 385.28376202 266.87727629 386.54089355 267.49615479 C387.15783081 267.79545898 387.77476807 268.09476318 388.41040039 268.40313721 C410.29287082 279.2183628 426.80788533 299.4948342 434.9197998 322.25396729 C441.62542369 343.10392965 442.94897416 366.27593291 435.9197998 387.25396729 C435.60631592 388.2086792 435.60631592 388.2086792 435.28649902 389.18267822 C427.08450007 413.57364141 409.34735607 433.75030236 386.60974121 445.60528564 C361.9471305 457.79577152 333.54915485 459.74879299 307.47717285 450.94610596 C289.51197429 444.44920639 272.15398935 432.98183265 260.9197998 417.25396729 C260.9197998 416.59396729 260.9197998 415.93396729 260.9197998 415.25396729 C260.03475356 415.25567603 260.03475356 415.25567603 259.13182759 415.25741929 C224.13435366 415.32460509 189.13689085 415.376053 154.13936581 415.40716327 C149.93385281 415.41091523 145.72833995 415.41479822 141.52282715 415.41876221 C140.68561212 415.41954914 139.8483971 415.42033607 138.98581192 415.42114685 C125.44329216 415.43418819 111.90081075 415.457835 98.35831371 415.48542567 C84.45458558 415.5135153 70.55087748 415.53015106 56.64712214 415.53623277 C48.07302701 415.54034184 39.49904028 415.55330344 30.92497852 415.57771669 C25.03934207 415.59361782 19.15376136 415.59835777 13.268105 415.59447142 C9.87620583 415.59255663 6.48464736 415.59707699 3.09275627 415.61158371 C-0.59474461 415.62657805 -4.28178714 415.62289517 -7.96929932 415.61473083 C-9.02770169 415.62346936 -10.08610406 415.63220788 -11.17657924 415.64121121 C-28.75445627 415.53650151 -42.80644614 408.65829319 -55.0802002 396.25396729 C-55.70410645 395.66357666 -56.3280127 395.07318604 -56.9708252 394.46490479 C-61.09651826 390.2462907 -63.74393097 385.47296595 -66.3927002 380.25396729 C-66.7305957 379.589375 -67.06849121 378.92478271 -67.41662598 378.24005127 C-71.73300988 369.35048594 -72.37324732 361.31115813 -72.34762573 351.53468323 C-72.3544224 349.62708616 -72.3544224 349.62708616 -72.36135638 347.68095177 C-72.37354411 344.16680716 -72.37333092 340.65275804 -72.37096763 337.13859713 C-72.37055838 333.34225614 -72.38160891 329.54594534 -72.39108276 325.74961853 C-72.40767093 318.31742044 -72.41319134 310.88525408 -72.41430752 303.45303903 C-72.41525911 297.40880944 -72.41937493 291.36459028 -72.42570877 285.320364 C-72.44331586 268.16816864 -72.45254857 251.01599828 -72.45104782 233.86379383 C-72.45096791 232.93978984 -72.450888 232.01578585 -72.45080566 231.06378174 C-72.4507239 230.13864398 -72.45064214 229.21350622 -72.4505579 228.26033398 C-72.44974534 213.27370685 -72.468877 198.28718031 -72.4970824 183.30058227 C-72.52584271 167.89706003 -72.53962093 152.4935868 -72.53789485 137.09003705 C-72.53723199 128.44833609 -72.54267823 119.80674056 -72.56425095 111.16506386 C-72.5825043 103.80613072 -72.58677616 96.44735079 -72.5732321 89.08840475 C-72.56672308 85.33786286 -72.56650973 81.58761455 -72.5839386 77.83710098 C-72.60268664 73.76057078 -72.59006101 69.68471385 -72.57467651 65.60816956 C-72.58496364 64.43751758 -72.59525077 63.26686561 -72.60584962 62.06073934 C-72.47059602 45.77062556 -65.93239358 30.36155022 -54.6505127 18.60162354 C-38.78894395 4.11408126 -21.07660596 -0.07460921 0 0 Z M-45.0802002 34.25396729 C-55.98893504 48.45783593 -56.23885726 62.30804167 -56.19372559 79.61773682 C-56.19344301 81.14628599 -56.19360282 82.6748353 -56.19416809 84.2033844 C-56.19445332 88.3245737 -56.18860118 92.4457335 -56.18159413 96.56691599 C-56.17531468 100.88438165 -56.17475318 105.2018481 -56.17356873 109.51931763 C-56.1704689 117.68237153 -56.16227378 125.84541194 -56.15221924 134.00845993 C-56.14101611 143.30718294 -56.13553709 152.60590662 -56.1305238 161.90463471 C-56.12008996 181.02108654 -56.10251677 200.13752582 -56.0802002 219.25396729 C-53.10750147 217.49493086 -50.35829037 215.79242908 -47.7677002 213.50396729 C-47.17392578 212.98366943 -46.58015137 212.46337158 -45.96838379 211.92730713 C-45.3452832 211.37510498 -44.72218262 210.82290283 -44.0802002 210.25396729 C-42.73960812 209.07885608 -41.39845258 207.9043874 -40.0567627 206.73052979 C-39.38806152 206.14432861 -38.71936035 205.55812744 -38.03039551 204.9541626 C-35.19633044 202.48340282 -32.32991971 200.05219711 -29.4552002 197.62896729 C-28.66339355 196.96091064 -28.66339355 196.96091064 -27.85559082 196.27935791 C-26.7949446 195.38488392 -25.73407348 194.49067653 -24.67297363 193.59674072 C-22.51595203 191.77828291 -20.36242836 189.9557096 -18.20910645 188.13287354 C-16.58580227 186.75870957 -14.96190901 185.3852439 -13.3380127 184.01177979 C-11.14321878 182.15484951 -8.95077049 180.29519759 -6.7598877 178.43365479 C-1.77705673 174.20317105 3.21682695 169.99543048 8.2947998 165.87896729 C13.41713504 161.71240306 18.39397358 157.39195447 23.37023926 153.05352783 C27.86738936 149.14174467 32.44132347 145.34207616 37.0760498 141.59381104 C41.22053803 138.18371701 45.27670084 134.67222223 49.32629395 131.15020752 C55.66227601 125.66920135 55.66227601 125.66920135 60.7713623 125.80474854 C65.77374942 126.85070221 69.83649331 130.32386465 73.9197998 133.25396729 C74.56352539 133.71529053 75.20725098 134.17661377 75.8704834 134.6519165 C78.83397071 136.78272267 81.79170205 138.9211541 84.74133301 141.07110596 C90.23370088 145.06838906 95.79776823 148.94163724 101.4197998 152.75396729 C107.72307644 157.03139803 113.94742495 161.39742937 120.1072998 165.87896729 C126.26055655 170.35521211 132.46639766 174.73505024 138.74963379 179.02667236 C144.08204569 182.67034545 149.38061731 186.36035441 154.6697998 190.06646729 C155.49850586 190.64533691 156.32721191 191.22420654 157.18103027 191.82061768 C161.640203 194.9389473 166.07995255 198.08139766 170.4979248 201.25787354 C171.40574707 201.90586914 172.31356934 202.55386475 173.24890137 203.22149658 C174.99595097 204.46918384 176.73773901 205.72428002 178.47351074 206.98760986 C179.65348633 207.8271521 179.65348633 207.8271521 180.8572998 208.68365479 C181.54694824 209.18107178 182.23659668 209.67848877 182.94714355 210.190979 C185.13321097 211.57021574 185.13321097 211.57021574 188.9197998 211.25396729 C190.80678359 210.28761291 190.80678359 210.28761291 192.6151123 208.86724854 C193.67472168 208.08801025 193.67472168 208.08801025 194.7557373 207.29302979 C195.51112793 206.72326416 196.26651855 206.15349854 197.0447998 205.56646729 C198.67222014 204.36439545 200.29982952 203.16257952 201.9276123 201.96099854 C202.75809082 201.3430542 203.58856934 200.72510986 204.44421387 200.08843994 C208.24296149 197.27347055 212.08172602 194.51493148 215.9197998 191.75396729 C217.42002332 190.6709435 218.92002264 189.58760909 220.4197998 188.50396729 C242.9197998 172.25396729 242.9197998 172.25396729 265.4197998 156.00396729 C266.16294434 155.46723389 266.90608887 154.93050049 267.67175293 154.37750244 C269.16517379 153.29895675 270.65866289 152.22050555 272.15222168 151.14215088 C276.79677947 147.78853677 281.43883467 144.43149799 286.07849121 141.07110596 C288.35257033 139.42755618 290.63209205 137.79177815 292.9119873 136.15631104 C295.30674246 134.43483632 297.65476008 132.68638346 299.9901123 130.88287354 C306.6268328 125.83937188 306.6268328 125.83937188 310.9197998 125.25396729 C322.48586878 126.92893845 335.63318737 145.90250529 343.4822998 153.81646729 C346.7516034 157.11226596 350.02414926 160.40479517 353.29870605 163.69537354 C354.04963028 164.4545961 354.8005545 165.21381866 355.57423401 165.99604797 C356.26262863 166.68774582 356.95102325 167.37944366 357.66027832 168.09210205 C358.26743179 168.70449234 358.87458527 169.31688263 359.50013733 169.9478302 C360.72093588 171.36681227 360.72093588 171.36681227 361.9197998 171.25396729 C362.03706809 156.37134518 362.12499942 141.48875913 362.17886066 126.60577202 C362.20454422 119.69391222 362.23950346 112.78234097 362.29699707 105.8706665 C362.35252394 99.19219149 362.3812777 92.51407714 362.39418602 85.83536148 C362.4033772 83.29583158 362.42132474 80.7563168 362.44845009 78.21691513 C362.6267797 60.81980335 362.66086011 45.58143623 349.9197998 32.25396729 C349.32425293 31.63006104 348.72870605 31.00615479 348.1151123 30.36334229 C336.08229833 18.87974388 322.09519941 16.94539434 306.1627655 16.99327087 C304.78983933 16.99024531 303.41691484 16.9863538 302.04399329 16.98167831 C298.29493128 16.97144165 294.54596536 16.97356901 290.79689562 16.9778589 C286.74428643 16.98033405 282.69169991 16.97130217 278.63909912 16.96382141 C270.7085231 16.95109404 262.77798097 16.94927829 254.84739646 16.95162167 C248.39846711 16.95340727 241.94954801 16.95165002 235.50061989 16.94739723 C234.58153289 16.94680204 233.6624459 16.94620685 232.71550778 16.94559363 C230.84815662 16.94438183 228.98080547 16.9431677 227.11345432 16.94195125 C209.61437516 16.93108317 192.11531529 16.93323468 174.61623506 16.9393361 C158.62420911 16.94450402 142.6322441 16.93325179 126.6402302 16.91423788 C110.20155469 16.89484344 93.76290798 16.88660633 77.32422096 16.89036113 C68.10242031 16.89227081 58.88067152 16.88980841 49.65888023 16.87564659 C41.80777439 16.8637113 33.95675231 16.86235191 26.10564526 16.87443676 C22.10400926 16.88031052 18.10252631 16.88146673 14.10090065 16.86943436 C10.42989954 16.8585249 6.75917835 16.86173838 3.08819006 16.87569604 C1.14774867 16.87956606 -0.79270539 16.86883735 -2.73311692 16.85739917 C-20.05624044 16.96322367 -33.15165115 21.51703723 -45.0802002 34.25396729 Z M54.0447998 149.19146729 C49.9155095 152.71939366 45.76814652 156.21339924 41.5447998 159.62896729 C36.42166914 163.79617853 31.44385052 168.11709185 26.46716309 172.456604 C21.98248463 176.35805783 17.41507272 180.13874635 12.7947998 183.87896729 C9.28432342 186.77892604 5.85147253 189.76154866 2.4197998 192.75396729 C-2.71247676 197.22931245 -7.91205293 201.59403855 -13.2052002 205.87896729 C-16.71567773 208.77892699 -20.14849954 211.76157923 -23.5802002 214.75396729 C-27.884487 218.50668486 -32.20780911 222.21760868 -36.6427002 225.81646729 C-37.44506104 226.4955162 -38.24742188 227.17456512 -39.07409668 227.87419128 C-41.25880755 229.6037134 -43.26826657 231.00939958 -45.62316895 232.4412384 C-50.51537821 235.64346705 -55.04788263 238.98305933 -56.86752319 244.74860764 C-58.09642088 252.12730203 -57.7365384 259.58357336 -57.5177002 267.03131104 C-57.49662083 269.44920019 -57.48150466 271.86714794 -57.4720459 274.28511047 C-57.4301151 280.62944232 -57.30253594 286.9693018 -57.15808105 293.31201172 C-57.05456775 298.46828835 -57.01044764 303.62424795 -56.96983337 308.78134823 C-58.93449478 350.46855504 -58.93449478 350.46855504 -41.20129395 386.19537354 C-28.94215803 397.66199966 -14.22939265 399.42189408 1.83473206 399.3742218 C3.43272688 399.37550344 3.43272688 399.37550344 5.06300443 399.37681097 C8.61432666 399.37845132 12.16560111 399.37296813 15.71691895 399.36749268 C18.26993814 399.36721047 20.82295742 399.3673692 23.37597656 399.36793518 C28.86302861 399.36816252 34.35006542 399.36533557 39.83711433 399.35969734 C47.7703453 399.35155087 55.70357053 399.3489639 63.63680523 399.34770935 C76.50970448 399.34552377 89.38259737 399.33887709 102.25549316 399.32940674 C114.75614388 399.32021983 127.25679287 399.31314526 139.75744629 399.30889893 C140.9143473 399.30850484 140.9143473 399.30850484 142.09462006 399.30810279 C145.96405879 399.3067977 149.83349754 399.30553401 153.70293629 399.30429089 C185.77522875 399.29393366 217.84751339 399.2763288 249.9197998 399.25396729 C249.24128291 395.65678742 248.31138725 392.26367714 247.15490723 388.78765869 C238.29584919 362.0014687 240.71580687 335.47090073 252.7322998 310.06646729 C265.48465068 285.60012489 286.76876334 269.19826946 312.7322998 260.87896729 C325.65570583 257.57812014 338.34043494 256.82944694 351.5760498 258.21490479 C352.57797363 258.31311523 353.57989746 258.41132568 354.61218262 258.51251221 C357.04887841 258.75240171 359.48457614 258.99963971 361.9197998 259.25396729 C363.49441859 249.85477222 364.52245667 240.44865906 365.1072998 230.94146729 C365.15095673 230.23685741 365.19461365 229.53224754 365.23959351 228.80628586 C366.22162928 210.83763074 364.31273153 196.48868067 352.23113441 182.56219292 C347.22970478 177.01919857 341.93726147 171.84270819 336.4197998 166.81646729 C335.80995113 166.26054775 335.20010246 165.70462822 334.57177353 165.13186264 C326.92358221 158.20759232 319.05128569 151.60500843 310.9197998 145.25396729 C307.66995068 146.51630951 304.93800174 147.76703895 302.12683105 149.83599854 C301.07205566 150.60556885 301.07205566 150.60556885 299.99597168 151.39068604 C298.8754541 152.22019775 298.8754541 152.22019775 297.7322998 153.06646729 C296.11391303 154.25020161 294.49542051 155.43379137 292.87683105 156.61724854 C292.05263672 157.22262451 291.22844238 157.82800049 290.37927246 158.45172119 C286.57437762 161.23986232 282.74671903 163.99617968 278.9197998 166.75396729 C277.41967516 167.83712802 275.91967552 168.92046188 274.4197998 170.00396729 C265.4197998 176.50396729 256.4197998 183.00396729 247.4197998 189.50396729 C246.67697754 190.04045898 245.93415527 190.57695068 245.16882324 191.12969971 C243.6721128 192.2106392 242.17536813 193.29153129 240.67858887 194.37237549 C236.87797343 197.11694269 233.07799682 199.86238695 229.2791748 202.60943604 C220.18052984 209.18749748 211.06491298 215.74064713 201.9197998 222.25396729 C205.33369007 225.98058032 209.19119529 228.64245089 213.3572998 231.44146729 C214.78443453 232.41274594 216.21151704 233.38410133 217.6385498 234.35552979 C219.06540837 235.32200754 220.49248673 236.28816088 221.9197998 237.25396729 C224.40296958 238.93568431 226.88173353 240.62358324 229.3572998 242.31646729 C230.40788574 243.02931885 231.45847168 243.74217041 232.54089355 244.47662354 C234.9197998 246.25396729 234.9197998 246.25396729 235.9197998 248.25396729 C236.37050403 255.35255883 236.37050403 255.35255883 234.9197998 258.25396729 C231.67992269 259.87390584 228.42609835 259.76959942 224.9197998 259.25396729 C222.2278857 258.06314722 220.00602386 256.40554386 217.6697998 254.62896729 C216.26763831 253.61439243 214.86528537 252.60008214 213.46276855 251.58599854 C212.72719727 251.04410889 211.99162598 250.50221924 211.23376465 249.94390869 C208.03190766 247.60551936 204.77757113 245.34579631 201.52233887 243.08258057 C193.76903942 237.69163783 186.05842619 232.23952641 178.3470459 226.78887939 C170.40572222 221.17850356 162.43647956 215.60809775 154.46813965 210.03619385 C150.2843692 207.11019995 146.10215457 204.18198418 141.9197998 201.25396729 C140.25314079 200.08728969 138.58647412 198.92062303 136.9197998 197.75396729 C126.9197998 190.75396729 116.9197998 183.75396729 106.9197998 176.75396729 C106.09407471 176.17598389 105.26834961 175.59800049 104.41760254 175.00250244 C102.75816825 173.84084978 101.09882515 172.67906683 99.4395752 171.51715088 C95.16300822 168.52267154 90.88467245 165.53076929 86.60339355 162.54302979 C84.85457762 161.32184461 83.10587769 160.1004933 81.3572998 158.87896729 C80.52287354 158.2961499 79.68844727 157.71333252 78.82873535 157.112854 C73.40524611 153.31646597 68.0337653 149.46154972 62.72058105 145.51177979 C59.00869589 142.91909644 56.94952259 146.69125161 54.0447998 149.19146729 Z M285.9197998 294.25396729 C285.08835449 294.9926001 284.25690918 295.73123291 283.40026855 296.49224854 C267.49283144 311.42227016 259.34005607 331.28378041 257.6385498 352.81256104 C257.07911345 373.34853719 263.68818007 394.10671854 277.4197998 409.56646729 C278.91213281 411.13629162 280.41150518 412.69947265 281.9197998 414.25396729 C282.72997559 415.17435791 282.72997559 415.17435791 283.55651855 416.11334229 C297.44142829 431.36226079 318.17789081 437.77311047 338.0994873 439.53521729 C359.76743179 440.23986589 380.24373077 431.80607617 396.3572998 417.69146729 C397.89584276 416.23072993 399.41830305 414.75275864 400.9197998 413.25396729 C401.85372559 412.33744385 401.85372559 412.33744385 402.80651855 411.40240479 C418.66077366 394.65746119 423.62043561 372.56944711 423.2244873 350.24615479 C422.43624124 329.49769429 412.02520492 309.18332465 396.9744873 294.96490479 C364.7604816 268.14031448 318.10659653 265.04644431 285.9197998 294.25396729 Z " fill="#000000" transform="translate(72.0802001953125,27.74603271484375)"/>
<path d="M0 0 C15.25992144 -0.62965695 28.0813074 4.36546997 39.71875 13.9296875 C48.08740397 21.69213155 55.22201116 33.71549299 56.20825195 45.32592773 C56.71750702 63.81533589 53.8708367 78.02110901 40.84375 91.9921875 C29.04948355 103.16570309 16.26662508 106.74542405 0.4519043 106.66650391 C-6.57473775 106.46931591 -12.5686427 105.24934765 -18.96875 102.2421875 C-19.75121094 101.8915625 -20.53367188 101.5409375 -21.33984375 101.1796875 C-34.8592845 94.43168241 -43.36229456 82.87204423 -48.2421875 68.84765625 C-52.16203114 54.79101266 -50.34330728 40.64281598 -43.96875 27.6796875 C-36.10698253 14.01557606 -24.8710355 6.22628587 -10.1796875 1.30859375 C-6.79164076 0.50848499 -3.46344536 0.28254423 0 0 Z M-24.96875 30.56640625 C-31.48186898 39.20985789 -34.34043202 48.41946562 -32.96875 59.2421875 C-30.26404457 69.64490071 -24.84534764 79.1768433 -15.3984375 84.76171875 C-5.99973211 89.51587439 3.6567416 90.92476764 14.02734375 88.55859375 C24.8621929 84.48496092 32.47557091 77.07548992 37.40625 66.6796875 C40.76844212 57.49723002 40.28465202 46.7745512 36.48046875 37.8046875 C31.11551416 28.31840661 22.51089131 20.92106177 11.96875 17.8671875 C-2.32668177 15.59807135 -15.3620574 19.40237872 -24.96875 30.56640625 Z " fill="#000000" transform="translate(248.96875,84.7578125)"/>
<path d="M0 0 C1.86254883 1.32752991 1.86254883 1.32752991 3.76953125 3.08227539 C4.46788086 3.71980743 5.16623047 4.35733948 5.88574219 5.01419067 C6.58344727 5.66950775 7.28115234 6.32482483 8 7 C8.94214355 7.87723221 8.94214355 7.87723221 9.90332031 8.77218628 C13.93926485 12.56966133 17.89607426 16.44881991 21.84814453 20.33325195 C23.28916416 21.74239062 24.73817268 23.14340329 26.19482422 24.53637695 C28.3160414 26.56645366 30.40995391 28.62149778 32.5 30.68359375 C33.15299072 31.29843124 33.80598145 31.91326874 34.47875977 32.54673767 C37.59877687 35.68051552 39.39788677 37.76927546 39.5078125 42.30493164 C39 46 39 46 37.375 48.4375 C34.4340868 50.37231132 32.52349544 50.92809193 29 51 C25.26451386 49.09467924 22.50561705 46.74310794 19.57421875 43.76953125 C18.77822266 42.96708984 17.98222656 42.16464844 17.16210938 41.33789062 C16.34548828 40.50451172 15.52886719 39.67113281 14.6875 38.8125 C13.85154297 37.96751953 13.01558594 37.12253906 12.15429688 36.25195312 C10.09826402 34.17242275 8.04705704 32.08836037 6 30 C5.99635437 30.81797058 5.99270874 31.63594116 5.98895264 32.47869873 C5.95107908 40.18897929 5.89423439 47.89877631 5.81609726 55.60874557 C5.77659491 59.57251385 5.74442025 63.53605906 5.72900391 67.5 C5.71385503 71.32578819 5.67944225 75.15096326 5.63169098 78.97647858 C5.61685867 80.43564778 5.60895792 81.89490452 5.60811615 83.35414886 C5.60575005 85.39919829 5.57870518 87.4425483 5.54589844 89.48730469 C5.53257477 91.23270538 5.53257477 91.23270538 5.51898193 93.0133667 C4.89438916 96.60776844 3.84367409 97.78836417 1 100 C-1.73962288 100.72771233 -4.23214139 100.57971577 -7 100 C-9.43119623 98.12984906 -10.64069173 96.71861655 -12 94 C-12.12027472 91.99902482 -12.17737258 89.9941379 -12.20532227 87.98974609 C-12.2352401 86.09801163 -12.2352401 86.09801163 -12.26576233 84.1680603 C-12.28274665 82.78652063 -12.29962546 81.40497966 -12.31640625 80.0234375 C-12.3369756 78.61381418 -12.35797207 77.20419703 -12.37937927 75.79458618 C-12.43460195 72.08252965 -12.48401031 68.37041743 -12.53222656 64.65826416 C-12.58244018 60.87108397 -12.63812697 57.08398474 -12.69335938 53.296875 C-12.80094333 45.86465188 -12.90238773 38.43236148 -13 31 C-13.76292358 31.80219971 -13.76292358 31.80219971 -14.54125977 32.62060547 C-16.86827068 35.05198442 -19.21497182 37.46343169 -21.5625 39.875 C-22.36236328 40.71675781 -23.16222656 41.55851562 -23.98632812 42.42578125 C-31.6928263 50.2895549 -31.6928263 50.2895549 -38 51 C-43.52272727 48.95454545 -43.52272727 48.95454545 -45 46 C-45.90810273 39.41625517 -45.90810273 39.41625517 -43.94067383 36.34790039 C-37.88158888 29.73390162 -31.54352753 23.39281541 -25.19165039 17.0612793 C-23.17150943 15.04655229 -21.15683617 13.02646615 -19.14257812 11.00585938 C-17.85969599 9.7236371 -16.57650419 8.44172455 -15.29296875 7.16015625 C-14.6909111 6.55607437 -14.08885345 5.95199249 -13.46855164 5.3296051 C-8.84483413 0.73201383 -6.67236773 -0.86095068 0 0 Z " fill="#000000" transform="translate(416,334)"/>
</svg>
