<svg width="130" height="38" viewBox="0 0 130 38" fill="none" xmlns="http://www.w3.org/2000/svg">
<path d="M115.89 8.00973C115.235 8.13801 114.651 8.52573 114.252 9.11831L114.193 9.2061L113.613 8.83712L103.226 24.2883L103.225 24.5425L103.212 29.0168L103.193 30.2147L104.295 29.7446L108.434 28.0442L108.669 27.9473L119.056 12.4962L118.5 12.1224L118.539 12.0639L118.554 12.0102C119.351 10.825 119.034 9.2101 117.849 8.41337C117.256 8.015 116.544 7.88145 115.89 8.00973ZM116.192 9.55121C116.437 9.50326 116.715 9.56301 116.964 9.73023C117.465 10.0671 117.574 10.6238 117.237 11.1249L117.178 11.2127L115.51 10.0914L115.569 10.0036C115.736 9.75483 115.947 9.59917 116.192 9.55121ZM114.069 11.0344L116.849 12.9033L115.949 14.2739L113.139 12.3854L114.069 11.0344ZM112.283 13.7219L115.034 15.5711L108.468 25.3696L107.872 24.0128L107.678 23.5426L107.17 23.5407L105.688 23.5007L112.283 13.7219ZM104.827 25.067L106.616 25.1228L107.343 26.7589L105.815 27.3887L104.82 26.7198L104.827 25.067Z" fill="#40461F"/>
<path d="M17.9612 15.4055L14.7585 24.3241L12.2883 25.0565L10.2489 19.2831L8.64043 24.3241L6.15585 25.0565L2.35 15.1326L0.928191 14.4289L1.38777 13.4954H6.04096V14.2996L5.03564 15.0464L7.89362 22.6438L9.57394 17.4018L8.76968 15.1326L7.46277 14.4432L7.92234 13.5097H12.9489V14.314L11.5128 15.2044L14.0548 22.6581L16.5681 15.506L14.2989 14.4432L14.7729 13.5097H19.3973L19.4117 14.2996L17.9612 15.4055ZM23.5941 18.9528C23.2494 18.9528 22.9047 19.106 22.5601 19.4124V23.2901L24.743 23.8645L24.2835 24.798H18.8404V23.9938L20.1186 22.9167V19.6565L18.8404 18.8523V18.048L21.8276 16.7842L22.3734 18.3784L23.6803 17.0284C23.8813 16.9518 24.1159 16.9135 24.384 16.9135C24.8819 16.9135 25.3079 17.0284 25.6622 17.2581C26.026 17.4879 26.2797 17.8039 26.4234 18.206L25.0446 19.9294H24.1398C24.1303 19.5847 24.0824 19.3406 23.9962 19.197C23.9101 19.0438 23.776 18.9672 23.5941 18.9672V18.9528ZM31.5553 24.798H27.017V23.9938L28.2952 22.9167V19.5847L27.017 18.7374V17.9331L29.8319 16.7842H30.7367V23.4337L32.0292 23.8645L31.5553 24.798ZM29.5016 12.4613C29.9133 12.4613 30.2484 12.5954 30.5069 12.8635C30.775 13.122 30.909 13.4475 30.909 13.8401C30.909 14.1177 30.8133 14.3762 30.6218 14.6156C30.4303 14.8549 30.1909 15.0464 29.9037 15.1901C29.6165 15.3337 29.3388 15.4055 29.0707 15.4055C28.6686 15.4055 28.3335 15.2762 28.0654 15.0177C27.8069 14.7496 27.6776 14.4193 27.6776 14.0268C27.6776 13.7491 27.7734 13.4906 27.9649 13.2512C28.1564 13.0119 28.3909 12.8204 28.6686 12.6768C28.9558 12.5331 29.2335 12.4613 29.5016 12.4613ZM37.7194 24.8268C37.3939 24.9034 37.0061 24.9417 36.5561 24.9417C35.6369 24.9417 34.9619 24.7358 34.5311 24.3241C34.1098 23.9028 33.8992 23.2565 33.8992 22.3853V18.4358H32.3481V17.6746L35.4359 14.314H36.3407V17.4879H38.9258V18.4358H36.3407V22.2847C36.3407 22.9454 36.7141 23.2757 37.4609 23.2757C37.6524 23.2757 37.8391 23.247 38.021 23.1895C38.2125 23.1225 38.4518 23.0124 38.7391 22.8592L39.1699 23.6778L37.7194 24.8268ZM44.6211 16.9135C45.6264 16.9135 46.4019 17.2964 46.9477 18.0624C47.503 18.8284 47.7711 19.8911 47.7519 21.2507H42.5817C42.6775 21.8347 42.8833 22.3039 43.1993 22.6581C43.5152 23.0028 43.9269 23.1752 44.4344 23.1752C45.1046 23.1752 46.0668 22.8401 47.3211 22.1698L47.7519 22.9885L45.569 24.7262C45.0041 24.8698 44.3482 24.9417 43.6014 24.9417C42.9025 24.9417 42.2706 24.7789 41.7057 24.4534C41.1503 24.1182 40.7147 23.6635 40.3987 23.089C40.0924 22.5145 39.9392 21.8778 39.9392 21.1789C39.9392 20.4225 40.1833 19.7188 40.6716 19.0677C41.1599 18.4071 41.7679 17.8853 42.4956 17.5023C43.2328 17.1097 43.9413 16.9135 44.6211 16.9135ZM43.8312 18.5794C43.4099 18.5794 43.094 18.723 42.8833 19.0103C42.6727 19.2879 42.5578 19.7188 42.5386 20.3028H45.2817C45.2051 19.7092 45.0615 19.2736 44.8509 18.9959C44.6498 18.7182 44.3051 18.5794 43.8168 18.5794H43.8312ZM56.256 18.4502C56.4187 18.7565 56.5001 19.0821 56.5001 19.4268C56.5001 20.0108 56.2512 20.5757 55.7533 21.1214C55.265 21.6576 54.657 22.0645 53.9294 22.3422C53.6804 22.6294 53.556 22.9167 53.556 23.2039C53.556 23.3379 53.6613 23.472 53.8719 23.606C54.0826 23.7305 54.4129 23.8932 54.8629 24.0943C55.5235 24.3815 56.031 24.6448 56.3852 24.8842C56.7395 25.1331 56.9166 25.4204 56.9166 25.7459C56.9166 26.0523 56.7251 26.4305 56.3421 26.8805C55.9592 27.3401 55.4804 27.7374 54.906 28.0725C54.3411 28.4172 53.7906 28.5895 53.2544 28.5895C52.6703 28.5895 51.9762 28.4986 51.1719 28.3167C50.3677 28.1347 49.6975 27.9528 49.1613 27.7709V25.2002H50.0661C50.5352 25.8321 51.0092 26.3108 51.4879 26.6363C51.9762 26.9714 52.5267 27.139 53.1395 27.139C53.4554 27.139 53.7187 27.0672 53.9294 26.9236C54.1496 26.7895 54.2597 26.6459 54.2597 26.4927C54.2597 26.2725 54.1304 26.0762 53.8719 25.9039C53.623 25.7411 53.2352 25.5401 52.7086 25.3007C52.1437 25.0518 51.7177 24.8315 51.4304 24.6401C51.1432 24.439 50.9996 24.2092 50.9996 23.9507C50.9996 23.7209 51.1719 23.4863 51.5166 23.247C51.8709 23.0076 52.2921 22.797 52.7804 22.6151C52.589 22.6342 52.4453 22.6438 52.3496 22.6438C51.7656 22.6438 51.2294 22.5289 50.7411 22.2991C50.2624 22.0693 49.8842 21.7629 49.6065 21.3799C49.3288 20.9874 49.19 20.5709 49.19 20.1305C49.19 19.5847 49.3911 19.0629 49.7932 18.5651C50.1953 18.0672 50.7171 17.6698 51.3586 17.373C52.0001 17.0667 52.656 16.9135 53.3262 16.9135C54.0921 16.9135 54.7671 17.1049 55.3512 17.4879H57.7209L57.7352 18.4502H56.256ZM53.1969 21.0065C53.5033 21.0065 53.7379 20.9347 53.9007 20.7911C54.073 20.6379 54.1592 20.4129 54.1592 20.1161C54.1592 19.647 54.006 19.2784 53.6996 19.0103C53.4028 18.7326 53.0054 18.5938 52.5076 18.5938C51.8757 18.5938 51.5597 18.8762 51.5597 19.4411C51.5597 19.9007 51.7081 20.2789 52.0049 20.5757C52.3113 20.8629 52.7086 21.0065 53.1969 21.0065ZM63.1903 16.9135C64.1956 16.9135 64.9712 17.2964 65.5169 18.0624C66.0722 18.8284 66.3403 19.8911 66.3212 21.2507H61.151C61.2467 21.8347 61.4526 22.3039 61.7685 22.6581C62.0845 23.0028 62.4962 23.1752 63.0036 23.1752C63.6738 23.1752 64.6361 22.8401 65.8903 22.1698L66.3212 22.9885L64.1382 24.7262C63.5733 24.8698 62.9174 24.9417 62.1706 24.9417C61.4717 24.9417 60.8398 24.7789 60.2749 24.4534C59.7196 24.1182 59.2839 23.6635 58.968 23.089C58.6616 22.5145 58.5084 21.8778 58.5084 21.1789C58.5084 20.4225 58.7526 19.7188 59.2409 19.0677C59.7291 18.4071 60.3371 17.8853 61.0648 17.5023C61.802 17.1097 62.5105 16.9135 63.1903 16.9135ZM62.4004 18.5794C61.9792 18.5794 61.6632 18.723 61.4526 19.0103C61.2419 19.2879 61.127 19.7188 61.1079 20.3028H63.851C63.7744 19.7092 63.6307 19.2736 63.4201 18.9959C63.219 18.7182 62.8744 18.5794 62.3861 18.5794H62.4004ZM72.6279 24.8268C72.3023 24.9034 71.9146 24.9417 71.4646 24.9417C70.5454 24.9417 69.8704 24.7358 69.4396 24.3241C69.0183 23.9028 68.8077 23.2565 68.8077 22.3853V18.4358H67.2566V17.6746L70.3444 14.314H71.2491V17.4879H73.8342V18.4358H71.2491V22.2847C71.2491 22.9454 71.6225 23.2757 72.3694 23.2757C72.5608 23.2757 72.7475 23.247 72.9295 23.1895C73.121 23.1225 73.3603 23.0124 73.6475 22.8592L74.0784 23.6778L72.6279 24.8268ZM84.0047 24.798H80.7446V20.2023C80.7446 19.7523 80.6728 19.4363 80.5292 19.2544C80.3951 19.0629 80.1558 18.9672 79.8111 18.9672C79.3036 18.9672 78.801 19.1299 78.3031 19.4555V23.4337L79.5957 23.8645L79.1217 24.798H74.5834V23.9938L75.8616 22.9167V15.0608L74.5834 14.2135V13.4092L77.3983 12.2603H78.3031V18.3209L79.9116 17.0284C80.1701 16.9518 80.4621 16.9135 80.7877 16.9135C81.5153 16.9135 82.0946 17.1145 82.5254 17.5167C82.9659 17.9092 83.1861 18.4454 83.1861 19.1252V23.4337L84.4786 23.8645L84.0047 24.798ZM90.0764 16.9135C91.0818 16.9135 91.8573 17.2964 92.403 18.0624C92.9584 18.8284 93.2264 19.8911 93.2073 21.2507H88.0371C88.1328 21.8347 88.3387 22.3039 88.6546 22.6581C88.9706 23.0028 89.3823 23.1752 89.8897 23.1752C90.56 23.1752 91.5222 22.8401 92.7764 22.1698L93.2073 22.9885L91.0243 24.7262C90.4594 24.8698 89.8036 24.9417 89.0568 24.9417C88.3578 24.9417 87.7259 24.7789 87.161 24.4534C86.6057 24.1182 86.1701 23.6635 85.8541 23.089C85.5477 22.5145 85.3945 21.8778 85.3945 21.1789C85.3945 20.4225 85.6387 19.7188 86.127 19.0677C86.6153 18.4071 87.2232 17.8853 87.9509 17.5023C88.6881 17.1097 89.3967 16.9135 90.0764 16.9135ZM89.2865 18.5794C88.8653 18.5794 88.5493 18.723 88.3387 19.0103C88.128 19.2879 88.0131 19.7188 87.994 20.3028H90.7371C90.6605 19.7092 90.5169 19.2736 90.3062 18.9959C90.1052 18.7182 89.7605 18.5794 89.2722 18.5794H89.2865ZM99.4278 18.9528C99.0831 18.9528 98.7384 19.106 98.3938 19.4124V23.2901L100.577 23.8645L100.117 24.798H94.6741V23.9938L95.9523 22.9167V19.6565L94.6741 18.8523V18.048L97.6613 16.7842L98.2071 18.3784L99.514 17.0284C99.715 16.9518 99.9496 16.9135 100.218 16.9135C100.716 16.9135 101.142 17.0284 101.496 17.2581C101.86 17.4879 102.113 17.8039 102.257 18.206L100.878 19.9294H99.9736C99.964 19.5847 99.9161 19.3406 99.8299 19.197C99.7438 19.0438 99.6097 18.9672 99.4278 18.9672V18.9528Z" fill="#40461F"/>
<path d="M23.3398 36.3033C42.0898 23.1384 70.0154 36.3033 103.127 29.9203" stroke="#8A9C29" stroke-width="0.797872"/>
</svg>
